<svg width="120" height="52" viewBox="0 0 120 52" fill="none" xmlns="http://www.w3.org/2000/svg">
<path d="M13.9483 44.8906V35.4834H17.6786V36.9738H15.5956V39.3941H17.42V40.8844H15.5956V43.4003H17.6786V44.8906H13.9483Z" fill="black"/>
<path d="M21.9397 44.8906L20.9595 41.3219H20.8506L19.8568 44.8906H18.1822L19.7342 40.1596L18.2094 35.4834H19.9249L20.8914 38.9154H20.9867L21.967 35.4834H23.6416L22.1168 40.1049L23.6688 44.8906H21.9397Z" fill="black"/>
<path d="M24.3763 35.4835H26.895C27.503 35.4835 27.9614 35.6021 28.2701 35.839C28.5785 36.0762 28.7827 36.4157 28.8827 36.8577C28.9824 37.3 29.0324 37.8946 29.0324 38.6419C29.0324 39.3621 28.9848 39.9433 28.8895 40.3853C28.7942 40.8276 28.5921 41.1762 28.2837 41.4313C27.975 41.6866 27.5121 41.8142 26.895 41.8142H26.0237V44.8906H24.3763V35.4835ZM26.6227 40.3238C26.8586 40.3238 27.0288 40.2806 27.1333 40.1939C27.2376 40.1074 27.3056 39.9546 27.3375 39.7358C27.3692 39.5171 27.3851 39.1526 27.3851 38.6419C27.3851 38.1316 27.3692 37.767 27.3375 37.5482C27.3056 37.3294 27.2376 37.179 27.1333 37.0969C27.0288 37.0148 26.8586 36.9738 26.6227 36.9738H26.0237V40.3238H26.6227V40.3238Z" fill="black"/>
<path d="M29.8356 44.8906V35.4835H33.5659V36.9738H31.483V39.3941H33.3073V40.8844H31.483V43.4003H33.5659V44.8906H29.8356Z" fill="black"/>
<path d="M37.7452 44.8906L36.9555 41.5407H36.9283H36.1795V44.8906H34.5322V35.4835H37.1052C37.7133 35.4835 38.1694 35.5976 38.4735 35.8253C38.7775 36.0533 38.9794 36.3769 39.0794 36.7961C39.1791 37.2155 39.2291 37.7852 39.2291 38.5052C39.2291 39.2162 39.1791 39.7836 39.0794 40.2075C38.9794 40.6314 38.7662 40.9527 38.4395 41.1714L39.4334 44.8906H37.7452ZM37.3435 39.9751C37.4477 39.8978 37.5158 39.7541 37.5477 39.5443C37.5794 39.3347 37.5953 38.9974 37.5953 38.5325C37.5953 38.0676 37.5794 37.7305 37.5477 37.5208C37.5158 37.3111 37.4477 37.1676 37.3435 37.0901C37.239 37.0127 37.0688 36.9738 36.8329 36.9738H36.1795V40.0913H36.8329C37.0689 40.0913 37.2391 40.0526 37.3435 39.9751Z" fill="black"/>
<path d="M41.8975 35.4835H40.2638V44.8906H41.8975V35.4835Z" fill="black"/>
<path d="M43.0953 44.8906V35.4835H46.8257V36.9738H44.7427V39.3941H46.567V40.8844H44.7427V43.4003H46.8257V44.8906H43.0953Z" fill="black"/>
<path d="M51.1413 44.8906L49.4123 39.5854H49.3578V44.8906H47.7922V35.4835H49.3442L50.9643 40.4195H51.0459V35.4835H52.5979V44.8906H51.1413Z" fill="black"/>
<path d="M56.7024 44.9385C56.4619 44.9795 56.2372 45 56.0285 45C55.3115 45 54.7849 44.8611 54.4493 44.5829C54.1135 44.305 53.8911 43.8401 53.7822 43.1883C53.6733 42.5367 53.6188 41.5362 53.6188 40.187C53.6188 38.8563 53.6754 37.8605 53.7891 37.1995C53.9024 36.5387 54.127 36.0693 54.4628 35.7911C54.7986 35.5132 55.3207 35.3741 56.0285 35.3741C56.2736 35.3741 56.5118 35.3925 56.7434 35.4288C56.9747 35.4653 57.1494 35.5155 57.2675 35.5792V36.9601C56.9135 36.8965 56.6004 36.8645 56.328 36.8645C55.9741 36.8645 55.7267 36.9307 55.5861 37.0627C55.4453 37.195 55.3547 37.4754 55.3138 37.9037C55.273 38.3322 55.2526 39.0932 55.2526 40.187C55.2526 41.2809 55.273 42.0421 55.3138 42.4705C55.3547 42.899 55.4453 43.1793 55.5861 43.3113C55.7267 43.4436 55.9741 43.5096 56.328 43.5096C56.673 43.5096 56.9951 43.4778 57.2947 43.4138V44.7811C57.1402 44.8451 56.9428 44.8974 56.7024 44.9385Z" fill="black"/>
<path d="M58.166 44.8906V35.4835H61.8963V36.9738H59.8132V39.3941H61.6376V40.8844H59.8132V43.4003H61.8963V44.8906H58.166Z" fill="black"/>
<path d="M70.4593 44.8906V37.6165H70.3641L69.275 44.8906H67.6276L66.5657 37.6165H66.4568V44.8906H64.9048V35.4835H67.4507L68.4581 42.4158H68.5533L69.5608 35.4835H72.0386V44.8906H70.4593Z" fill="black"/>
<path d="M76.6128 44.8906L76.2997 42.8259H74.6932L74.3802 44.8906H72.7599L74.2984 35.4835H76.7217L78.2737 44.8906H76.6128ZM75.5373 37.179H75.4556L74.8565 41.3765H76.1362L75.5373 37.179Z" fill="black"/>
<path d="M82.3172 44.8906L80.5883 39.5854H80.5337V44.8906H78.9681V35.4835H80.5202L82.1402 40.4195H82.2219V35.4835H83.7739V44.8906H82.3172Z" fill="black"/>
<path d="M88.3345 44.8906L88.0214 42.8259H86.4149L86.1019 44.8906H84.4817L86.0201 35.4835H88.4434L89.9954 44.8906H88.3345ZM87.259 37.179H87.1773L86.5783 41.3765H87.858L87.259 37.179Z" fill="black"/>
<path d="M92.9904 40.9528V39.5034H95.1687V44.7129C94.9053 44.804 94.5832 44.8748 94.202 44.9248C93.8209 44.9748 93.4533 45 93.0994 45C92.3731 45 91.8332 44.8724 91.4793 44.6172C91.1252 44.3621 90.8802 43.8993 90.7441 43.2294C90.608 42.5593 90.5399 41.5454 90.5399 40.1871C90.5399 38.8289 90.6125 37.8149 90.7578 37.1448C90.9028 36.4748 91.1661 36.0123 91.5474 35.7569C91.9286 35.5019 92.5003 35.3742 93.2628 35.3742C93.5531 35.3742 93.8776 35.3993 94.2361 35.4494C94.5944 35.4996 94.901 35.561 95.1551 35.6339V37.0149C94.5105 36.9147 94.0295 36.8646 93.712 36.8646C93.2036 36.8646 92.8543 36.9192 92.6637 37.0286C92.473 37.1379 92.3414 37.4114 92.2689 37.849C92.1961 38.2865 92.1599 39.0658 92.1599 40.187C92.1599 41.2535 92.1803 42.0055 92.2212 42.4431C92.262 42.8806 92.3459 43.1746 92.473 43.3249C92.6 43.4753 92.8223 43.5505 93.1402 43.5505C93.367 43.5505 93.5531 43.5324 93.6984 43.4958V40.9527H92.9904V40.9528Z" fill="black"/>
<path d="M96.2444 44.8906V35.4835H99.9747V36.9738H97.8916V39.3941H99.716V40.8844H97.8916V43.4003H99.9747V44.8906H96.2444Z" fill="black"/>
<path d="M104.154 44.8906L103.364 41.5407H103.337H102.588V44.8906H100.941V35.4835H103.514C104.122 35.4835 104.578 35.5976 104.882 35.8253C105.186 36.0533 105.388 36.3769 105.488 36.7961C105.588 37.2155 105.638 37.7852 105.638 38.5052C105.638 39.2162 105.588 39.7836 105.488 40.2075C105.388 40.6314 105.175 40.9527 104.848 41.1714L105.842 44.8906H104.154ZM103.752 39.9751C103.857 39.8978 103.925 39.7541 103.957 39.5443C103.988 39.3347 104.004 38.9974 104.004 38.5325C104.004 38.0676 103.988 37.7305 103.957 37.5208C103.925 37.3111 103.857 37.1676 103.752 37.0901C103.648 37.0127 103.478 36.9738 103.242 36.9738H102.588V40.0913H103.242C103.478 40.0913 103.648 40.0526 103.752 39.9751Z" fill="black"/>
<path d="M22.6405 19.499H26.7051V31.996H24.666L23.8791 30.1561C22.6247 31.6582 21.6034 32.3427 19.6333 32.3427C16.3001 32.3427 13.9916 29.9514 13.9916 26.0238V13.32C13.9916 9.83828 16.0283 7 20.179 7C24.3909 7 26.5002 10.0769 26.5002 13.7624V15.3315H22.4888C22.4888 11.6484 21.7393 10.6933 20.0726 10.6933C19.0548 10.6933 18.2033 11.3039 18.2033 13.3883V26.0557C18.2033 27.6272 18.7151 28.6529 20.179 28.6529C21.8763 28.6529 22.4888 27.6931 22.4888 25.2393V22.8445H19.801L22.6405 19.499Z" fill="black"/>
<path d="M34.3951 13.32C34.3951 9.83822 36.4353 7 40.8543 7C45.2722 7 47.3124 9.83822 47.3124 13.32V26.0238C47.3124 29.509 45.2722 32.3427 40.8543 32.3427C36.4353 32.3427 34.3951 29.509 34.3951 26.0238V13.32V13.32ZM38.607 25.9203C38.607 27.7658 39.1527 28.6528 40.8543 28.6528C42.5515 28.6528 43.0973 27.7658 43.0973 25.9203V13.4246C43.0973 11.5768 42.5515 10.6932 40.8543 10.6932C39.1527 10.6932 38.607 11.5768 38.607 13.4246V25.9203Z" fill="black"/>
<path d="M54.7975 31.9959V7.33984H66.0879V11.0287H59.015V17.3818H64.4518V21.0717H59.015V28.3116H66.5645V31.9959H54.7975Z" fill="black"/>
<path d="M77.5106 31.9959H73.2975V7.33994H79.2168C83.9415 7.33994 86.3552 9.35723 86.3552 14.6164C86.3552 18.5803 84.8211 20.1836 83.3969 20.8295L86.9633 31.9959H82.6801L79.6855 21.7903C79.1443 21.854 78.26 21.8926 77.5106 21.8926V31.9959ZM77.5106 18.4097H79.0072C81.2864 18.4097 82.1379 17.5546 82.1379 14.6164C82.1379 11.6815 81.2864 10.8252 79.0072 10.8252H77.5106V18.4097Z" fill="black"/>
<path d="M101.385 13.4246C101.217 11.3038 100.095 10.6932 99.1413 10.6932C97.7804 10.6932 97.0343 11.5768 97.0343 13.1153C97.0343 17.3158 105.603 19.3296 105.603 26.0238C105.603 30.0855 102.881 32.3427 98.9375 32.3427C95.0281 32.3427 92.7829 29.1974 92.6142 25.5087L96.6222 24.9275C96.7955 27.4248 97.7804 28.6528 99.1413 28.6528C100.606 28.6528 101.589 27.866 101.589 26.3978C101.589 21.5174 93.0208 20.2155 93.0208 13.1517C93.0208 9.21958 95.4028 7 99.5478 7C102.982 7 105.023 9.49253 105.397 12.9788L101.385 13.4246Z" fill="black"/>
</svg>
