<svg width="24" height="24" viewBox="0 0 24 24" fill="none" xmlns="http://www.w3.org/2000/svg">
<path fill-rule="evenodd" clip-rule="evenodd" d="M7.03758 1H16.8408C20.1702 1 22.8787 3.70859 22.8786 7.03771V16.8409C22.8786 20.17 20.1702 22.8786 16.8408 22.8786H7.03758C3.70846 22.8786 1 20.1702 1 16.8409V7.03771C1 3.70859 3.70846 1 7.03758 1ZM16.8409 20.9375C19.0998 20.9375 20.9376 19.0998 20.9376 16.841H20.9374V7.03775C20.9374 4.779 19.0996 2.94122 16.8408 2.94122H7.03757C4.77881 2.94122 2.94117 4.779 2.94117 7.03775V16.841C2.94117 19.0998 4.77881 20.9376 7.03757 20.9375H16.8409Z" fill="#00A490"/>
<path fill-rule="evenodd" clip-rule="evenodd" d="M6.30176 11.9395C6.30176 8.83091 8.83072 6.30194 11.9393 6.30194C15.0479 6.30194 17.5769 8.83091 17.5769 11.9395C17.5769 15.048 15.0479 17.5768 11.9393 17.5768C8.83072 17.5768 6.30176 15.048 6.30176 11.9395ZM8.24294 11.9396C8.24294 13.9777 9.90122 15.6357 11.9393 15.6357C13.9774 15.6357 15.6357 13.9777 15.6357 11.9396C15.6357 9.90132 13.9776 8.24316 11.9393 8.24316C9.90109 8.24316 8.24294 9.90132 8.24294 11.9396Z" fill="#00A490"/>
<path d="M17.8132 4.65601C17.4392 4.65601 17.0718 4.80742 16.8076 5.07271C16.5422 5.33671 16.3896 5.70424 16.3896 6.07954C16.3896 6.45366 16.5424 6.82106 16.8076 7.08636C17.0716 7.35036 17.4392 7.50306 17.8132 7.50306C18.1885 7.50306 18.5547 7.35036 18.82 7.08636C19.0853 6.82106 19.2367 6.45354 19.2367 6.07954C19.2367 5.70424 19.0853 5.33671 18.82 5.07271C18.556 4.80742 18.1885 4.65601 17.8132 4.65601Z" fill="#00A490"/>
</svg>
